<svg xmlns="http://www.w3.org/2000/svg" width="860" height="470" viewBox="0 0 860 470" font-family="'JetBrains Mono',Consolas,monospace">
<style>
.t{font-size:12px;fill:#9fb3c8} .dim{fill:#52677d} .g{fill:#39ff7a} .r{fill:#ff5c57} .y{fill:#ffd866} .c{fill:#56c8ff}
@keyframes pop{from{transform:scaleY(0)}to{transform:scaleY(1)}}
.k{transform-origin:center;transform-box:fill-box;animation:pop .35s cubic-bezier(.2,.9,.3,1.2) backwards}
@keyframes vol{from{transform:scaleY(0)}to{transform:scaleY(1)}}
.vb{transform-origin:bottom;transform-box:fill-box;animation:vol .4s ease-out backwards}
@keyframes blink{0%,49%{opacity:1}50%,100%{opacity:0}}
.bl{animation:blink 1.1s step-end infinite}
@keyframes xh{0%{transform:translateX(0)}100%{transform:translateX(770px)}}
.xhair{animation:xh 9s linear infinite alternate;opacity:.35}
@keyframes fade{from{opacity:0}to{opacity:1}}
.fd{animation:fade .5s ease-out 5.2s backwards}
@media (prefers-reduced-motion: reduce){.k,.vb,.bl,.xhair,.fd{animation:none}}
</style>
<rect width="860" height="470" rx="10" fill="#0a0e12"/>
<text x="20" y="24" font-size="15" class="g" font-weight="bold">HENRIQUEVMDEV/CMT</text>
<text x="20" y="41" font-size="10" class="dim">PERP · 1W · COMMIT EXCHANGE</text>
<text x="840" y="24" text-anchor="end" font-size="16" fill="#39ff7a" font-weight="bold">171.79</text>
<text x="840" y="40" text-anchor="end" font-size="11" fill="#39ff7a">+71.79% · 52W</text>
<line x1="16" y1="50" x2="844" y2="50" stroke="#1b232d"/>
<line x1="56" y1="64.0" x2="826" y2="64.0" stroke="#1b232d" stroke-dasharray="2 4"/>
<text x="48" y="68.0" text-anchor="end" font-size="10" class="dim">190</text>
<line x1="56" y1="131.5" x2="826" y2="131.5" stroke="#1b232d" stroke-dasharray="2 4"/>
<text x="48" y="135.5" text-anchor="end" font-size="10" class="dim">154</text>
<line x1="56" y1="199.0" x2="826" y2="199.0" stroke="#1b232d" stroke-dasharray="2 4"/>
<text x="48" y="203.0" text-anchor="end" font-size="10" class="dim">118</text>
<line x1="56" y1="266.5" x2="826" y2="266.5" stroke="#1b232d" stroke-dasharray="2 4"/>
<text x="48" y="270.5" text-anchor="end" font-size="10" class="dim">82</text>
<line x1="56" y1="334.0" x2="826" y2="334.0" stroke="#1b232d" stroke-dasharray="2 4"/>
<text x="48" y="338.0" text-anchor="end" font-size="10" class="dim">46</text>
<g class="xhair"><line x1="56" y1="64" x2="56" y2="334" stroke="#56c8ff" stroke-width="1" stroke-dasharray="3 3"/></g>
<g class="k" style="animation-delay:0.00s">
<line x1="63.4" y1="232.2" x2="63.4" y2="235.3" stroke="#39ff7a" stroke-width="1"/>
<rect x="58.8" y="233.2" width="9.2" height="1.5" fill="#39ff7a" rx="1"/>
</g>
<g class="k" style="animation-delay:0.06s">
<line x1="78.2" y1="232.6" x2="78.2" y2="234.1" stroke="#39ff7a" stroke-width="1"/>
<rect x="73.6" y="233.2" width="9.2" height="1.5" fill="#39ff7a" rx="1"/>
</g>
<g class="k" style="animation-delay:0.12s">
<line x1="93.0" y1="231.4" x2="93.0" y2="234.0" stroke="#39ff7a" stroke-width="1"/>
<rect x="88.4" y="233.2" width="9.2" height="1.5" fill="#39ff7a" rx="1"/>
</g>
<g class="k" style="animation-delay:0.18s">
<line x1="107.8" y1="231.8" x2="107.8" y2="233.8" stroke="#39ff7a" stroke-width="1"/>
<rect x="103.2" y="233.2" width="9.2" height="1.5" fill="#39ff7a" rx="1"/>
</g>
<g class="k" style="animation-delay:0.24s">
<line x1="122.6" y1="231.2" x2="122.6" y2="235.1" stroke="#39ff7a" stroke-width="1"/>
<rect x="118.0" y="233.2" width="9.2" height="1.5" fill="#39ff7a" rx="1"/>
</g>
<g class="k" style="animation-delay:0.30s">
<line x1="137.4" y1="232.5" x2="137.4" y2="235.0" stroke="#39ff7a" stroke-width="1"/>
<rect x="132.9" y="233.2" width="9.2" height="1.5" fill="#39ff7a" rx="1"/>
</g>
<g class="k" style="animation-delay:0.36s">
<line x1="152.3" y1="232.6" x2="152.3" y2="235.2" stroke="#39ff7a" stroke-width="1"/>
<rect x="147.7" y="233.2" width="9.2" height="1.5" fill="#39ff7a" rx="1"/>
</g>
<g class="k" style="animation-delay:0.42s">
<line x1="167.1" y1="232.3" x2="167.1" y2="234.4" stroke="#39ff7a" stroke-width="1"/>
<rect x="162.5" y="233.2" width="9.2" height="1.5" fill="#39ff7a" rx="1"/>
</g>
<g class="k" style="animation-delay:0.48s">
<line x1="181.9" y1="231.0" x2="181.9" y2="234.6" stroke="#39ff7a" stroke-width="1"/>
<rect x="177.3" y="233.2" width="9.2" height="1.5" fill="#39ff7a" rx="1"/>
</g>
<g class="k" style="animation-delay:0.54s">
<line x1="196.7" y1="232.6" x2="196.7" y2="234.9" stroke="#39ff7a" stroke-width="1"/>
<rect x="192.1" y="233.2" width="9.2" height="1.5" fill="#39ff7a" rx="1"/>
</g>
<g class="k" style="animation-delay:0.60s">
<line x1="211.5" y1="232.3" x2="211.5" y2="234.8" stroke="#39ff7a" stroke-width="1"/>
<rect x="206.9" y="233.2" width="9.2" height="1.5" fill="#39ff7a" rx="1"/>
</g>
<g class="k" style="animation-delay:0.66s">
<line x1="226.3" y1="188.8" x2="226.3" y2="240.6" stroke="#39ff7a" stroke-width="1"/>
<rect x="221.7" y="195.6" width="9.2" height="37.6" fill="#39ff7a" rx="1"/>
</g>
<g class="k" style="animation-delay:0.72s">
<line x1="241.1" y1="181.8" x2="241.1" y2="255.7" stroke="#ff5c57" stroke-width="1"/>
<rect x="236.5" y="195.6" width="9.2" height="45.1" fill="#ff5c57" rx="1"/>
</g>
<g class="k" style="animation-delay:0.78s">
<line x1="255.9" y1="239.1" x2="255.9" y2="242.4" stroke="#39ff7a" stroke-width="1"/>
<rect x="251.3" y="240.7" width="9.2" height="1.5" fill="#39ff7a" rx="1"/>
</g>
<g class="k" style="animation-delay:0.84s">
<line x1="270.7" y1="238.8" x2="270.7" y2="242.4" stroke="#39ff7a" stroke-width="1"/>
<rect x="266.1" y="240.7" width="9.2" height="1.5" fill="#39ff7a" rx="1"/>
</g>
<g class="k" style="animation-delay:0.90s">
<line x1="285.5" y1="240.1" x2="285.5" y2="242.3" stroke="#39ff7a" stroke-width="1"/>
<rect x="280.9" y="240.7" width="9.2" height="1.5" fill="#39ff7a" rx="1"/>
</g>
<g class="k" style="animation-delay:0.96s">
<line x1="300.3" y1="239.5" x2="300.3" y2="241.7" stroke="#39ff7a" stroke-width="1"/>
<rect x="295.7" y="240.7" width="9.2" height="1.5" fill="#39ff7a" rx="1"/>
</g>
<g class="k" style="animation-delay:1.02s">
<line x1="315.1" y1="239.4" x2="315.1" y2="241.4" stroke="#39ff7a" stroke-width="1"/>
<rect x="310.5" y="240.7" width="9.2" height="1.5" fill="#39ff7a" rx="1"/>
</g>
<g class="k" style="animation-delay:1.08s">
<line x1="329.9" y1="239.2" x2="329.9" y2="241.5" stroke="#39ff7a" stroke-width="1"/>
<rect x="325.4" y="240.7" width="9.2" height="1.5" fill="#39ff7a" rx="1"/>
</g>
<g class="k" style="animation-delay:1.14s">
<line x1="344.8" y1="240.2" x2="344.8" y2="242.6" stroke="#39ff7a" stroke-width="1"/>
<rect x="340.2" y="240.7" width="9.2" height="1.5" fill="#39ff7a" rx="1"/>
</g>
<g class="k" style="animation-delay:1.20s">
<line x1="359.6" y1="239.0" x2="359.6" y2="241.9" stroke="#39ff7a" stroke-width="1"/>
<rect x="355.0" y="240.7" width="9.2" height="1.5" fill="#39ff7a" rx="1"/>
</g>
<g class="k" style="animation-delay:1.26s">
<line x1="374.4" y1="239.8" x2="374.4" y2="241.4" stroke="#39ff7a" stroke-width="1"/>
<rect x="369.8" y="240.7" width="9.2" height="1.5" fill="#39ff7a" rx="1"/>
</g>
<g class="k" style="animation-delay:1.32s">
<line x1="389.2" y1="240.1" x2="389.2" y2="241.5" stroke="#39ff7a" stroke-width="1"/>
<rect x="384.6" y="240.7" width="9.2" height="1.5" fill="#39ff7a" rx="1"/>
</g>
<g class="k" style="animation-delay:1.38s">
<line x1="404.0" y1="239.3" x2="404.0" y2="241.5" stroke="#39ff7a" stroke-width="1"/>
<rect x="399.4" y="240.7" width="9.2" height="1.5" fill="#39ff7a" rx="1"/>
</g>
<g class="k" style="animation-delay:1.44s">
<line x1="418.8" y1="238.6" x2="418.8" y2="242.7" stroke="#39ff7a" stroke-width="1"/>
<rect x="414.2" y="240.7" width="9.2" height="1.5" fill="#39ff7a" rx="1"/>
</g>
<g class="k" style="animation-delay:1.50s">
<line x1="433.6" y1="239.8" x2="433.6" y2="241.5" stroke="#39ff7a" stroke-width="1"/>
<rect x="429.0" y="240.7" width="9.2" height="1.5" fill="#39ff7a" rx="1"/>
</g>
<g class="k" style="animation-delay:1.56s">
<line x1="448.4" y1="239.7" x2="448.4" y2="242.0" stroke="#39ff7a" stroke-width="1"/>
<rect x="443.8" y="240.7" width="9.2" height="1.5" fill="#39ff7a" rx="1"/>
</g>
<g class="k" style="animation-delay:1.62s">
<line x1="463.2" y1="239.1" x2="463.2" y2="241.2" stroke="#39ff7a" stroke-width="1"/>
<rect x="458.6" y="240.7" width="9.2" height="1.5" fill="#39ff7a" rx="1"/>
</g>
<g class="k" style="animation-delay:1.68s">
<line x1="478.0" y1="239.0" x2="478.0" y2="242.1" stroke="#39ff7a" stroke-width="1"/>
<rect x="473.4" y="240.7" width="9.2" height="1.5" fill="#39ff7a" rx="1"/>
</g>
<g class="k" style="animation-delay:1.74s">
<line x1="492.8" y1="240.2" x2="492.8" y2="242.3" stroke="#39ff7a" stroke-width="1"/>
<rect x="488.2" y="240.7" width="9.2" height="1.5" fill="#39ff7a" rx="1"/>
</g>
<g class="k" style="animation-delay:1.80s">
<line x1="507.6" y1="240.1" x2="507.6" y2="242.9" stroke="#39ff7a" stroke-width="1"/>
<rect x="503.0" y="240.7" width="9.2" height="1.5" fill="#39ff7a" rx="1"/>
</g>
<g class="k" style="animation-delay:1.86s">
<line x1="522.4" y1="178.4" x2="522.4" y2="266.0" stroke="#39ff7a" stroke-width="1"/>
<rect x="517.9" y="190.2" width="9.2" height="50.5" fill="#39ff7a" rx="1"/>
</g>
<g class="k" style="animation-delay:1.92s">
<line x1="537.2" y1="183.0" x2="537.2" y2="278.2" stroke="#ff5c57" stroke-width="1"/>
<rect x="532.7" y="190.2" width="9.2" height="64.7" fill="#ff5c57" rx="1"/>
</g>
<g class="k" style="animation-delay:1.98s">
<line x1="552.1" y1="184.4" x2="552.1" y2="261.5" stroke="#39ff7a" stroke-width="1"/>
<rect x="547.5" y="208.3" width="9.2" height="46.6" fill="#39ff7a" rx="1"/>
</g>
<g class="k" style="animation-delay:2.04s">
<line x1="566.9" y1="191.0" x2="566.9" y2="291.6" stroke="#ff5c57" stroke-width="1"/>
<rect x="562.3" y="208.3" width="9.2" height="59.6" fill="#ff5c57" rx="1"/>
</g>
<g class="k" style="animation-delay:2.10s">
<line x1="581.7" y1="205.5" x2="581.7" y2="287.6" stroke="#39ff7a" stroke-width="1"/>
<rect x="577.1" y="225.0" width="9.2" height="42.9" fill="#39ff7a" rx="1"/>
</g>
<g class="k" style="animation-delay:2.16s">
<line x1="596.5" y1="163.0" x2="596.5" y2="231.7" stroke="#39ff7a" stroke-width="1"/>
<rect x="591.9" y="170.1" width="9.2" height="54.9" fill="#39ff7a" rx="1"/>
</g>
<g class="k" style="animation-delay:2.22s">
<line x1="611.3" y1="156.9" x2="611.3" y2="233.0" stroke="#ff5c57" stroke-width="1"/>
<rect x="606.7" y="170.1" width="9.2" height="50.2" fill="#ff5c57" rx="1"/>
</g>
<g class="k" style="animation-delay:2.28s">
<line x1="626.1" y1="217.6" x2="626.1" y2="240.2" stroke="#ff5c57" stroke-width="1"/>
<rect x="621.5" y="220.3" width="9.2" height="15.1" fill="#ff5c57" rx="1"/>
</g>
<g class="k" style="animation-delay:2.34s">
<line x1="640.9" y1="221.9" x2="640.9" y2="315.4" stroke="#ff5c57" stroke-width="1"/>
<rect x="636.3" y="235.4" width="9.2" height="52.0" fill="#ff5c57" rx="1"/>
</g>
<g class="k" style="animation-delay:2.40s">
<line x1="655.7" y1="286.6" x2="655.7" y2="288.9" stroke="#39ff7a" stroke-width="1"/>
<rect x="651.1" y="287.4" width="9.2" height="1.5" fill="#39ff7a" rx="1"/>
</g>
<g class="k" style="animation-delay:2.46s">
<line x1="670.5" y1="246.8" x2="670.5" y2="302.0" stroke="#39ff7a" stroke-width="1"/>
<rect x="665.9" y="260.6" width="9.2" height="26.8" fill="#39ff7a" rx="1"/>
</g>
<g class="k" style="animation-delay:2.52s">
<line x1="685.3" y1="201.6" x2="685.3" y2="277.1" stroke="#39ff7a" stroke-width="1"/>
<rect x="680.7" y="215.7" width="9.2" height="45.0" fill="#39ff7a" rx="1"/>
</g>
<g class="k" style="animation-delay:2.58s">
<line x1="700.1" y1="130.0" x2="700.1" y2="240.9" stroke="#39ff7a" stroke-width="1"/>
<rect x="695.5" y="158.1" width="9.2" height="57.5" fill="#39ff7a" rx="1"/>
</g>
<g class="k" style="animation-delay:2.64s">
<line x1="714.9" y1="101.3" x2="714.9" y2="171.0" stroke="#39ff7a" stroke-width="1"/>
<rect x="710.4" y="108.8" width="9.2" height="49.3" fill="#39ff7a" rx="1"/>
</g>
<g class="k" style="animation-delay:2.70s">
<line x1="729.8" y1="86.7" x2="729.8" y2="226.7" stroke="#ff5c57" stroke-width="1"/>
<rect x="725.2" y="108.8" width="9.2" height="87.5" fill="#ff5c57" rx="1"/>
</g>
<g class="k" style="animation-delay:2.76s">
<line x1="744.6" y1="109.3" x2="744.6" y2="205.5" stroke="#39ff7a" stroke-width="1"/>
<rect x="740.0" y="133.3" width="9.2" height="63.0" fill="#39ff7a" rx="1"/>
</g>
<g class="k" style="animation-delay:2.82s">
<line x1="759.4" y1="123.3" x2="759.4" y2="235.2" stroke="#ff5c57" stroke-width="1"/>
<rect x="754.8" y="133.3" width="9.2" height="74.0" fill="#ff5c57" rx="1"/>
</g>
<g class="k" style="animation-delay:2.88s">
<line x1="774.2" y1="195.4" x2="774.2" y2="295.6" stroke="#ff5c57" stroke-width="1"/>
<rect x="769.6" y="207.3" width="9.2" height="59.9" fill="#ff5c57" rx="1"/>
</g>
<g class="k" style="animation-delay:2.94s">
<line x1="789.0" y1="218.4" x2="789.0" y2="285.3" stroke="#39ff7a" stroke-width="1"/>
<rect x="784.4" y="224.1" width="9.2" height="43.1" fill="#39ff7a" rx="1"/>
</g>
<g class="k" style="animation-delay:3.00s">
<line x1="803.8" y1="161.3" x2="803.8" y2="253.7" stroke="#39ff7a" stroke-width="1"/>
<rect x="799.2" y="168.9" width="9.2" height="55.2" fill="#39ff7a" rx="1"/>
</g>
<g class="k" style="animation-delay:3.06s">
<line x1="818.6" y1="82.6" x2="818.6" y2="185.1" stroke="#39ff7a" stroke-width="1"/>
<rect x="814.0" y="98.3" width="9.2" height="70.6" fill="#39ff7a" rx="1"/>
</g>
<line x1="56" y1="98.3" x2="826" y2="98.3" stroke="#39ff7a" stroke-width="0.7" stroke-dasharray="5 4" opacity="0.6"/>
<circle class="bl" cx="822.0" cy="98.3" r="3.4" fill="#39ff7a"/>
<text x="56" y="346" font-size="10" class="dim">VOL (commits/week)</text>
<rect class="vb" style="animation-delay:0.00s" x="58.8" y="409.0" width="9.2" height="1.0" fill="#39ff7a" opacity="0.55"/>
<rect class="vb" style="animation-delay:0.06s" x="73.6" y="409.0" width="9.2" height="1.0" fill="#39ff7a" opacity="0.55"/>
<rect class="vb" style="animation-delay:0.12s" x="88.4" y="409.0" width="9.2" height="1.0" fill="#39ff7a" opacity="0.55"/>
<rect class="vb" style="animation-delay:0.18s" x="103.2" y="409.0" width="9.2" height="1.0" fill="#39ff7a" opacity="0.55"/>
<rect class="vb" style="animation-delay:0.24s" x="118.0" y="409.0" width="9.2" height="1.0" fill="#39ff7a" opacity="0.55"/>
<rect class="vb" style="animation-delay:0.30s" x="132.9" y="409.0" width="9.2" height="1.0" fill="#39ff7a" opacity="0.55"/>
<rect class="vb" style="animation-delay:0.36s" x="147.7" y="409.0" width="9.2" height="1.0" fill="#39ff7a" opacity="0.55"/>
<rect class="vb" style="animation-delay:0.42s" x="162.5" y="409.0" width="9.2" height="1.0" fill="#39ff7a" opacity="0.55"/>
<rect class="vb" style="animation-delay:0.48s" x="177.3" y="409.0" width="9.2" height="1.0" fill="#39ff7a" opacity="0.55"/>
<rect class="vb" style="animation-delay:0.54s" x="192.1" y="409.0" width="9.2" height="1.0" fill="#39ff7a" opacity="0.55"/>
<rect class="vb" style="animation-delay:0.60s" x="206.9" y="409.0" width="9.2" height="1.0" fill="#39ff7a" opacity="0.55"/>
<rect class="vb" style="animation-delay:0.66s" x="221.7" y="409.0" width="9.2" height="1.0" fill="#39ff7a" opacity="0.55"/>
<rect class="vb" style="animation-delay:0.72s" x="236.5" y="409.0" width="9.2" height="1.0" fill="#ff5c57" opacity="0.55"/>
<rect class="vb" style="animation-delay:0.78s" x="251.3" y="409.0" width="9.2" height="1.0" fill="#39ff7a" opacity="0.55"/>
<rect class="vb" style="animation-delay:0.84s" x="266.1" y="409.0" width="9.2" height="1.0" fill="#39ff7a" opacity="0.55"/>
<rect class="vb" style="animation-delay:0.90s" x="280.9" y="409.0" width="9.2" height="1.0" fill="#39ff7a" opacity="0.55"/>
<rect class="vb" style="animation-delay:0.96s" x="295.7" y="409.0" width="9.2" height="1.0" fill="#39ff7a" opacity="0.55"/>
<rect class="vb" style="animation-delay:1.02s" x="310.5" y="409.0" width="9.2" height="1.0" fill="#39ff7a" opacity="0.55"/>
<rect class="vb" style="animation-delay:1.08s" x="325.4" y="409.0" width="9.2" height="1.0" fill="#39ff7a" opacity="0.55"/>
<rect class="vb" style="animation-delay:1.14s" x="340.2" y="409.0" width="9.2" height="1.0" fill="#39ff7a" opacity="0.55"/>
<rect class="vb" style="animation-delay:1.20s" x="355.0" y="409.0" width="9.2" height="1.0" fill="#39ff7a" opacity="0.55"/>
<rect class="vb" style="animation-delay:1.26s" x="369.8" y="409.0" width="9.2" height="1.0" fill="#39ff7a" opacity="0.55"/>
<rect class="vb" style="animation-delay:1.32s" x="384.6" y="409.0" width="9.2" height="1.0" fill="#39ff7a" opacity="0.55"/>
<rect class="vb" style="animation-delay:1.38s" x="399.4" y="409.0" width="9.2" height="1.0" fill="#39ff7a" opacity="0.55"/>
<rect class="vb" style="animation-delay:1.44s" x="414.2" y="409.0" width="9.2" height="1.0" fill="#39ff7a" opacity="0.55"/>
<rect class="vb" style="animation-delay:1.50s" x="429.0" y="409.0" width="9.2" height="1.0" fill="#39ff7a" opacity="0.55"/>
<rect class="vb" style="animation-delay:1.56s" x="443.8" y="409.0" width="9.2" height="1.0" fill="#39ff7a" opacity="0.55"/>
<rect class="vb" style="animation-delay:1.62s" x="458.6" y="409.0" width="9.2" height="1.0" fill="#39ff7a" opacity="0.55"/>
<rect class="vb" style="animation-delay:1.68s" x="473.4" y="409.0" width="9.2" height="1.0" fill="#39ff7a" opacity="0.55"/>
<rect class="vb" style="animation-delay:1.74s" x="488.2" y="409.0" width="9.2" height="1.0" fill="#39ff7a" opacity="0.55"/>
<rect class="vb" style="animation-delay:1.80s" x="503.0" y="409.0" width="9.2" height="1.0" fill="#39ff7a" opacity="0.55"/>
<rect class="vb" style="animation-delay:1.86s" x="517.9" y="407.4" width="9.2" height="2.6" fill="#39ff7a" opacity="0.55"/>
<rect class="vb" style="animation-delay:1.92s" x="532.7" y="409.0" width="9.2" height="1.0" fill="#ff5c57" opacity="0.55"/>
<rect class="vb" style="animation-delay:1.98s" x="547.5" y="398.7" width="9.2" height="11.3" fill="#39ff7a" opacity="0.55"/>
<rect class="vb" style="animation-delay:2.04s" x="562.3" y="409.0" width="9.2" height="1.0" fill="#ff5c57" opacity="0.55"/>
<rect class="vb" style="animation-delay:2.10s" x="577.1" y="404.8" width="9.2" height="5.2" fill="#39ff7a" opacity="0.55"/>
<rect class="vb" style="animation-delay:2.16s" x="591.9" y="399.6" width="9.2" height="10.4" fill="#39ff7a" opacity="0.55"/>
<rect class="vb" style="animation-delay:2.22s" x="606.7" y="403.1" width="9.2" height="6.9" fill="#ff5c57" opacity="0.55"/>
<rect class="vb" style="animation-delay:2.28s" x="621.5" y="403.9" width="9.2" height="6.1" fill="#ff5c57" opacity="0.55"/>
<rect class="vb" style="animation-delay:2.34s" x="636.3" y="407.4" width="9.2" height="2.6" fill="#ff5c57" opacity="0.55"/>
<rect class="vb" style="animation-delay:2.40s" x="651.1" y="407.4" width="9.2" height="2.6" fill="#39ff7a" opacity="0.55"/>
<rect class="vb" style="animation-delay:2.46s" x="665.9" y="406.5" width="9.2" height="3.5" fill="#39ff7a" opacity="0.55"/>
<rect class="vb" style="animation-delay:2.52s" x="680.7" y="404.8" width="9.2" height="5.2" fill="#39ff7a" opacity="0.55"/>
<rect class="vb" style="animation-delay:2.58s" x="695.5" y="396.1" width="9.2" height="13.9" fill="#39ff7a" opacity="0.55"/>
<rect class="vb" style="animation-delay:2.64s" x="710.4" y="391.8" width="9.2" height="18.2" fill="#39ff7a" opacity="0.55"/>
<rect class="vb" style="animation-delay:2.70s" x="725.2" y="403.9" width="9.2" height="6.1" fill="#ff5c57" opacity="0.55"/>
<rect class="vb" style="animation-delay:2.76s" x="740.0" y="391.8" width="9.2" height="18.2" fill="#39ff7a" opacity="0.55"/>
<rect class="vb" style="animation-delay:2.82s" x="754.8" y="399.6" width="9.2" height="10.4" fill="#ff5c57" opacity="0.55"/>
<rect class="vb" style="animation-delay:2.88s" x="769.6" y="407.4" width="9.2" height="2.6" fill="#ff5c57" opacity="0.55"/>
<rect class="vb" style="animation-delay:2.94s" x="784.4" y="395.3" width="9.2" height="14.7" fill="#39ff7a" opacity="0.55"/>
<rect class="vb" style="animation-delay:3.00s" x="799.2" y="386.6" width="9.2" height="23.4" fill="#39ff7a" opacity="0.55"/>
<rect class="vb" style="animation-delay:3.06s" x="814.0" y="352.0" width="9.2" height="58.0" fill="#39ff7a" opacity="0.55"/>
<line x1="16" y1="424" x2="844" y2="424" stroke="#1b232d"/>
<g class="fd">
<text x="20" y="442" class="t"><tspan class="dim">VOL 52W</tspan> <tspan class="c">258</tspan></text>
<text x="200" y="442" class="t"><tspan class="dim">ATH WEEK</tspan> <tspan class="y">67 @ 2026-07-05</tspan></text>
<text x="510" y="442" class="t"><tspan class="dim">GREEN WEEKS</tspan> <tspan class="g">43/52</tspan></text>
<text x="840" y="442" text-anchor="end" class="t"><tspan class="dim">funding paid in</tspan> <tspan class="g">commits</tspan> <tspan class="bl g">█</tspan></text>
</g>
</svg>