<svg xmlns="http://www.w3.org/2000/svg" width="860" height="470" viewBox="0 0 860 470" font-family="'JetBrains Mono',Consolas,monospace">
<style>
.t{font-size:12px;fill:#9fb3c8} .dim{fill:#52677d} .g{fill:#39ff7a} .r{fill:#ff5c57} .y{fill:#ffd866} .c{fill:#56c8ff}
@keyframes pop{from{transform:scaleY(0)}to{transform:scaleY(1)}}
.k{transform-origin:center;transform-box:fill-box;animation:pop .35s cubic-bezier(.2,.9,.3,1.2) backwards}
@keyframes vol{from{transform:scaleY(0)}to{transform:scaleY(1)}}
.vb{transform-origin:bottom;transform-box:fill-box;animation:vol .4s ease-out backwards}
@keyframes blink{0%,49%{opacity:1}50%,100%{opacity:0}}
.bl{animation:blink 1.1s step-end infinite}
@keyframes xh{0%{transform:translateX(0)}100%{transform:translateX(770px)}}
.xhair{animation:xh 9s linear infinite alternate;opacity:.35}
@keyframes fade{from{opacity:0}to{opacity:1}}
.fd{animation:fade .5s ease-out 5.2s backwards}
@media (prefers-reduced-motion: reduce){.k,.vb,.bl,.xhair,.fd{animation:none}}
</style>
<rect width="860" height="470" rx="10" fill="#0a0e12"/>
<text x="20" y="24" font-size="15" class="g" font-weight="bold">HENRIQUEVMDEV/CMT</text>
<text x="20" y="41" font-size="10" class="dim">PERP · 1W · COMMIT EXCHANGE</text>
<text x="840" y="24" text-anchor="end" font-size="16" fill="#39ff7a" font-weight="bold">113.77</text>
<text x="840" y="40" text-anchor="end" font-size="11" fill="#39ff7a">+13.77% · 52W</text>
<line x1="16" y1="50" x2="844" y2="50" stroke="#1b232d"/>
<line x1="56" y1="64.0" x2="826" y2="64.0" stroke="#1b232d" stroke-dasharray="2 4"/>
<text x="48" y="68.0" text-anchor="end" font-size="10" class="dim">188</text>
<line x1="56" y1="131.5" x2="826" y2="131.5" stroke="#1b232d" stroke-dasharray="2 4"/>
<text x="48" y="135.5" text-anchor="end" font-size="10" class="dim">152</text>
<line x1="56" y1="199.0" x2="826" y2="199.0" stroke="#1b232d" stroke-dasharray="2 4"/>
<text x="48" y="203.0" text-anchor="end" font-size="10" class="dim">117</text>
<line x1="56" y1="266.5" x2="826" y2="266.5" stroke="#1b232d" stroke-dasharray="2 4"/>
<text x="48" y="270.5" text-anchor="end" font-size="10" class="dim">82</text>
<line x1="56" y1="334.0" x2="826" y2="334.0" stroke="#1b232d" stroke-dasharray="2 4"/>
<text x="48" y="338.0" text-anchor="end" font-size="10" class="dim">47</text>
<g class="xhair"><line x1="56" y1="64" x2="56" y2="334" stroke="#56c8ff" stroke-width="1" stroke-dasharray="3 3"/></g>
<g class="k" style="animation-delay:0.00s">
<line x1="63.4" y1="230.3" x2="63.4" y2="233.5" stroke="#39ff7a" stroke-width="1"/>
<rect x="58.8" y="231.7" width="9.2" height="1.5" fill="#39ff7a" rx="1"/>
</g>
<g class="k" style="animation-delay:0.06s">
<line x1="78.2" y1="230.0" x2="78.2" y2="233.2" stroke="#39ff7a" stroke-width="1"/>
<rect x="73.6" y="231.7" width="9.2" height="1.5" fill="#39ff7a" rx="1"/>
</g>
<g class="k" style="animation-delay:0.12s">
<line x1="93.0" y1="230.5" x2="93.0" y2="234.0" stroke="#39ff7a" stroke-width="1"/>
<rect x="88.4" y="231.7" width="9.2" height="1.5" fill="#39ff7a" rx="1"/>
</g>
<g class="k" style="animation-delay:0.18s">
<line x1="107.8" y1="229.6" x2="107.8" y2="233.7" stroke="#39ff7a" stroke-width="1"/>
<rect x="103.2" y="231.7" width="9.2" height="1.5" fill="#39ff7a" rx="1"/>
</g>
<g class="k" style="animation-delay:0.24s">
<line x1="122.6" y1="230.7" x2="122.6" y2="233.9" stroke="#39ff7a" stroke-width="1"/>
<rect x="118.0" y="231.7" width="9.2" height="1.5" fill="#39ff7a" rx="1"/>
</g>
<g class="k" style="animation-delay:0.30s">
<line x1="137.4" y1="231.1" x2="137.4" y2="232.6" stroke="#39ff7a" stroke-width="1"/>
<rect x="132.9" y="231.7" width="9.2" height="1.5" fill="#39ff7a" rx="1"/>
</g>
<g class="k" style="animation-delay:0.36s">
<line x1="152.3" y1="229.9" x2="152.3" y2="232.5" stroke="#39ff7a" stroke-width="1"/>
<rect x="147.7" y="231.7" width="9.2" height="1.5" fill="#39ff7a" rx="1"/>
</g>
<g class="k" style="animation-delay:0.42s">
<line x1="167.1" y1="230.3" x2="167.1" y2="232.3" stroke="#39ff7a" stroke-width="1"/>
<rect x="162.5" y="231.7" width="9.2" height="1.5" fill="#39ff7a" rx="1"/>
</g>
<g class="k" style="animation-delay:0.48s">
<line x1="181.9" y1="229.7" x2="181.9" y2="233.6" stroke="#39ff7a" stroke-width="1"/>
<rect x="177.3" y="231.7" width="9.2" height="1.5" fill="#39ff7a" rx="1"/>
</g>
<g class="k" style="animation-delay:0.54s">
<line x1="196.7" y1="231.0" x2="196.7" y2="233.5" stroke="#39ff7a" stroke-width="1"/>
<rect x="192.1" y="231.7" width="9.2" height="1.5" fill="#39ff7a" rx="1"/>
</g>
<g class="k" style="animation-delay:0.60s">
<line x1="211.5" y1="231.1" x2="211.5" y2="233.7" stroke="#39ff7a" stroke-width="1"/>
<rect x="206.9" y="231.7" width="9.2" height="1.5" fill="#39ff7a" rx="1"/>
</g>
<g class="k" style="animation-delay:0.66s">
<line x1="226.3" y1="230.8" x2="226.3" y2="232.9" stroke="#39ff7a" stroke-width="1"/>
<rect x="221.7" y="231.7" width="9.2" height="1.5" fill="#39ff7a" rx="1"/>
</g>
<g class="k" style="animation-delay:0.72s">
<line x1="241.1" y1="229.4" x2="241.1" y2="233.1" stroke="#39ff7a" stroke-width="1"/>
<rect x="236.5" y="231.7" width="9.2" height="1.5" fill="#39ff7a" rx="1"/>
</g>
<g class="k" style="animation-delay:0.78s">
<line x1="255.9" y1="231.1" x2="255.9" y2="233.5" stroke="#39ff7a" stroke-width="1"/>
<rect x="251.3" y="231.7" width="9.2" height="1.5" fill="#39ff7a" rx="1"/>
</g>
<g class="k" style="animation-delay:0.84s">
<line x1="270.7" y1="230.8" x2="270.7" y2="233.3" stroke="#39ff7a" stroke-width="1"/>
<rect x="266.1" y="231.7" width="9.2" height="1.5" fill="#39ff7a" rx="1"/>
</g>
<g class="k" style="animation-delay:0.90s">
<line x1="285.5" y1="186.5" x2="285.5" y2="239.3" stroke="#39ff7a" stroke-width="1"/>
<rect x="280.9" y="193.5" width="9.2" height="38.3" fill="#39ff7a" rx="1"/>
</g>
<g class="k" style="animation-delay:0.96s">
<line x1="300.3" y1="179.4" x2="300.3" y2="254.6" stroke="#ff5c57" stroke-width="1"/>
<rect x="295.7" y="193.5" width="9.2" height="45.9" fill="#ff5c57" rx="1"/>
</g>
<g class="k" style="animation-delay:1.02s">
<line x1="315.1" y1="237.7" x2="315.1" y2="241.1" stroke="#39ff7a" stroke-width="1"/>
<rect x="310.5" y="239.4" width="9.2" height="1.5" fill="#39ff7a" rx="1"/>
</g>
<g class="k" style="animation-delay:1.08s">
<line x1="329.9" y1="237.4" x2="329.9" y2="241.1" stroke="#39ff7a" stroke-width="1"/>
<rect x="325.4" y="239.4" width="9.2" height="1.5" fill="#39ff7a" rx="1"/>
</g>
<g class="k" style="animation-delay:1.14s">
<line x1="344.8" y1="238.7" x2="344.8" y2="241.0" stroke="#39ff7a" stroke-width="1"/>
<rect x="340.2" y="239.4" width="9.2" height="1.5" fill="#39ff7a" rx="1"/>
</g>
<g class="k" style="animation-delay:1.20s">
<line x1="359.6" y1="238.1" x2="359.6" y2="240.4" stroke="#39ff7a" stroke-width="1"/>
<rect x="355.0" y="239.4" width="9.2" height="1.5" fill="#39ff7a" rx="1"/>
</g>
<g class="k" style="animation-delay:1.26s">
<line x1="374.4" y1="238.0" x2="374.4" y2="240.1" stroke="#39ff7a" stroke-width="1"/>
<rect x="369.8" y="239.4" width="9.2" height="1.5" fill="#39ff7a" rx="1"/>
</g>
<g class="k" style="animation-delay:1.32s">
<line x1="389.2" y1="237.8" x2="389.2" y2="240.1" stroke="#39ff7a" stroke-width="1"/>
<rect x="384.6" y="239.4" width="9.2" height="1.5" fill="#39ff7a" rx="1"/>
</g>
<g class="k" style="animation-delay:1.38s">
<line x1="404.0" y1="238.8" x2="404.0" y2="241.2" stroke="#39ff7a" stroke-width="1"/>
<rect x="399.4" y="239.4" width="9.2" height="1.5" fill="#39ff7a" rx="1"/>
</g>
<g class="k" style="animation-delay:1.44s">
<line x1="418.8" y1="237.6" x2="418.8" y2="240.6" stroke="#39ff7a" stroke-width="1"/>
<rect x="414.2" y="239.4" width="9.2" height="1.5" fill="#39ff7a" rx="1"/>
</g>
<g class="k" style="animation-delay:1.50s">
<line x1="433.6" y1="238.4" x2="433.6" y2="240.0" stroke="#39ff7a" stroke-width="1"/>
<rect x="429.0" y="239.4" width="9.2" height="1.5" fill="#39ff7a" rx="1"/>
</g>
<g class="k" style="animation-delay:1.56s">
<line x1="448.4" y1="238.8" x2="448.4" y2="240.2" stroke="#39ff7a" stroke-width="1"/>
<rect x="443.8" y="239.4" width="9.2" height="1.5" fill="#39ff7a" rx="1"/>
</g>
<g class="k" style="animation-delay:1.62s">
<line x1="463.2" y1="237.9" x2="463.2" y2="240.2" stroke="#39ff7a" stroke-width="1"/>
<rect x="458.6" y="239.4" width="9.2" height="1.5" fill="#39ff7a" rx="1"/>
</g>
<g class="k" style="animation-delay:1.68s">
<line x1="478.0" y1="237.2" x2="478.0" y2="241.4" stroke="#39ff7a" stroke-width="1"/>
<rect x="473.4" y="239.4" width="9.2" height="1.5" fill="#39ff7a" rx="1"/>
</g>
<g class="k" style="animation-delay:1.74s">
<line x1="492.8" y1="238.5" x2="492.8" y2="240.2" stroke="#39ff7a" stroke-width="1"/>
<rect x="488.2" y="239.4" width="9.2" height="1.5" fill="#39ff7a" rx="1"/>
</g>
<g class="k" style="animation-delay:1.80s">
<line x1="507.6" y1="238.3" x2="507.6" y2="240.7" stroke="#39ff7a" stroke-width="1"/>
<rect x="503.0" y="239.4" width="9.2" height="1.5" fill="#39ff7a" rx="1"/>
</g>
<g class="k" style="animation-delay:1.86s">
<line x1="522.4" y1="237.8" x2="522.4" y2="239.9" stroke="#39ff7a" stroke-width="1"/>
<rect x="517.9" y="239.4" width="9.2" height="1.5" fill="#39ff7a" rx="1"/>
</g>
<g class="k" style="animation-delay:1.92s">
<line x1="537.2" y1="237.6" x2="537.2" y2="240.8" stroke="#39ff7a" stroke-width="1"/>
<rect x="532.7" y="239.4" width="9.2" height="1.5" fill="#39ff7a" rx="1"/>
</g>
<g class="k" style="animation-delay:1.98s">
<line x1="552.1" y1="238.8" x2="552.1" y2="241.0" stroke="#39ff7a" stroke-width="1"/>
<rect x="547.5" y="239.4" width="9.2" height="1.5" fill="#39ff7a" rx="1"/>
</g>
<g class="k" style="animation-delay:2.04s">
<line x1="566.9" y1="238.7" x2="566.9" y2="241.6" stroke="#39ff7a" stroke-width="1"/>
<rect x="562.3" y="239.4" width="9.2" height="1.5" fill="#39ff7a" rx="1"/>
</g>
<g class="k" style="animation-delay:2.10s">
<line x1="581.7" y1="175.9" x2="581.7" y2="265.2" stroke="#39ff7a" stroke-width="1"/>
<rect x="577.1" y="187.9" width="9.2" height="51.4" fill="#39ff7a" rx="1"/>
</g>
<g class="k" style="animation-delay:2.16s">
<line x1="596.5" y1="180.6" x2="596.5" y2="277.5" stroke="#ff5c57" stroke-width="1"/>
<rect x="591.9" y="187.9" width="9.2" height="65.8" fill="#ff5c57" rx="1"/>
</g>
<g class="k" style="animation-delay:2.22s">
<line x1="611.3" y1="182.1" x2="611.3" y2="260.5" stroke="#39ff7a" stroke-width="1"/>
<rect x="606.7" y="206.4" width="9.2" height="47.4" fill="#39ff7a" rx="1"/>
</g>
<g class="k" style="animation-delay:2.28s">
<line x1="626.1" y1="188.8" x2="626.1" y2="291.2" stroke="#ff5c57" stroke-width="1"/>
<rect x="621.5" y="206.4" width="9.2" height="60.7" fill="#ff5c57" rx="1"/>
</g>
<g class="k" style="animation-delay:2.34s">
<line x1="640.9" y1="203.5" x2="640.9" y2="287.1" stroke="#39ff7a" stroke-width="1"/>
<rect x="636.3" y="223.4" width="9.2" height="43.7" fill="#39ff7a" rx="1"/>
</g>
<g class="k" style="animation-delay:2.40s">
<line x1="655.7" y1="160.3" x2="655.7" y2="230.2" stroke="#39ff7a" stroke-width="1"/>
<rect x="651.1" y="167.4" width="9.2" height="55.9" fill="#39ff7a" rx="1"/>
</g>
<g class="k" style="animation-delay:2.46s">
<line x1="670.5" y1="154.0" x2="670.5" y2="231.5" stroke="#ff5c57" stroke-width="1"/>
<rect x="665.9" y="167.4" width="9.2" height="51.1" fill="#ff5c57" rx="1"/>
</g>
<g class="k" style="animation-delay:2.52s">
<line x1="685.3" y1="215.9" x2="685.3" y2="238.9" stroke="#ff5c57" stroke-width="1"/>
<rect x="680.7" y="218.6" width="9.2" height="15.3" fill="#ff5c57" rx="1"/>
</g>
<g class="k" style="animation-delay:2.58s">
<line x1="700.1" y1="220.3" x2="700.1" y2="315.4" stroke="#ff5c57" stroke-width="1"/>
<rect x="695.5" y="233.9" width="9.2" height="53.0" fill="#ff5c57" rx="1"/>
</g>
<g class="k" style="animation-delay:2.64s">
<line x1="714.9" y1="286.1" x2="714.9" y2="288.5" stroke="#39ff7a" stroke-width="1"/>
<rect x="710.4" y="286.9" width="9.2" height="1.5" fill="#39ff7a" rx="1"/>
</g>
<g class="k" style="animation-delay:2.70s">
<line x1="729.8" y1="245.5" x2="729.8" y2="301.7" stroke="#39ff7a" stroke-width="1"/>
<rect x="725.2" y="259.7" width="9.2" height="27.2" fill="#39ff7a" rx="1"/>
</g>
<g class="k" style="animation-delay:2.76s">
<line x1="744.6" y1="199.5" x2="744.6" y2="276.4" stroke="#39ff7a" stroke-width="1"/>
<rect x="740.0" y="213.9" width="9.2" height="45.8" fill="#39ff7a" rx="1"/>
</g>
<g class="k" style="animation-delay:2.82s">
<line x1="759.4" y1="126.7" x2="759.4" y2="239.6" stroke="#39ff7a" stroke-width="1"/>
<rect x="754.8" y="155.3" width="9.2" height="58.6" fill="#39ff7a" rx="1"/>
</g>
<g class="k" style="animation-delay:2.88s">
<line x1="774.2" y1="97.4" x2="774.2" y2="168.3" stroke="#39ff7a" stroke-width="1"/>
<rect x="769.6" y="105.1" width="9.2" height="50.2" fill="#39ff7a" rx="1"/>
</g>
<g class="k" style="animation-delay:2.94s">
<line x1="789.0" y1="82.6" x2="789.0" y2="225.1" stroke="#ff5c57" stroke-width="1"/>
<rect x="784.4" y="105.1" width="9.2" height="89.0" fill="#ff5c57" rx="1"/>
</g>
<g class="k" style="animation-delay:3.00s">
<line x1="803.8" y1="105.6" x2="803.8" y2="203.5" stroke="#39ff7a" stroke-width="1"/>
<rect x="799.2" y="130.0" width="9.2" height="64.1" fill="#39ff7a" rx="1"/>
</g>
<g class="k" style="animation-delay:3.06s">
<line x1="818.6" y1="119.8" x2="818.6" y2="233.8" stroke="#ff5c57" stroke-width="1"/>
<rect x="814.0" y="130.0" width="9.2" height="75.4" fill="#ff5c57" rx="1"/>
</g>
<line x1="56" y1="205.4" x2="826" y2="205.4" stroke="#39ff7a" stroke-width="0.7" stroke-dasharray="5 4" opacity="0.6"/>
<circle class="bl" cx="822.0" cy="205.4" r="3.4" fill="#39ff7a"/>
<text x="56" y="346" font-size="10" class="dim">VOL (commits/week)</text>
<rect class="vb" style="animation-delay:0.00s" x="58.8" y="409.0" width="9.2" height="1.0" fill="#39ff7a" opacity="0.55"/>
<rect class="vb" style="animation-delay:0.06s" x="73.6" y="409.0" width="9.2" height="1.0" fill="#39ff7a" opacity="0.55"/>
<rect class="vb" style="animation-delay:0.12s" x="88.4" y="409.0" width="9.2" height="1.0" fill="#39ff7a" opacity="0.55"/>
<rect class="vb" style="animation-delay:0.18s" x="103.2" y="409.0" width="9.2" height="1.0" fill="#39ff7a" opacity="0.55"/>
<rect class="vb" style="animation-delay:0.24s" x="118.0" y="409.0" width="9.2" height="1.0" fill="#39ff7a" opacity="0.55"/>
<rect class="vb" style="animation-delay:0.30s" x="132.9" y="409.0" width="9.2" height="1.0" fill="#39ff7a" opacity="0.55"/>
<rect class="vb" style="animation-delay:0.36s" x="147.7" y="409.0" width="9.2" height="1.0" fill="#39ff7a" opacity="0.55"/>
<rect class="vb" style="animation-delay:0.42s" x="162.5" y="409.0" width="9.2" height="1.0" fill="#39ff7a" opacity="0.55"/>
<rect class="vb" style="animation-delay:0.48s" x="177.3" y="409.0" width="9.2" height="1.0" fill="#39ff7a" opacity="0.55"/>
<rect class="vb" style="animation-delay:0.54s" x="192.1" y="409.0" width="9.2" height="1.0" fill="#39ff7a" opacity="0.55"/>
<rect class="vb" style="animation-delay:0.60s" x="206.9" y="409.0" width="9.2" height="1.0" fill="#39ff7a" opacity="0.55"/>
<rect class="vb" style="animation-delay:0.66s" x="221.7" y="409.0" width="9.2" height="1.0" fill="#39ff7a" opacity="0.55"/>
<rect class="vb" style="animation-delay:0.72s" x="236.5" y="409.0" width="9.2" height="1.0" fill="#39ff7a" opacity="0.55"/>
<rect class="vb" style="animation-delay:0.78s" x="251.3" y="409.0" width="9.2" height="1.0" fill="#39ff7a" opacity="0.55"/>
<rect class="vb" style="animation-delay:0.84s" x="266.1" y="409.0" width="9.2" height="1.0" fill="#39ff7a" opacity="0.55"/>
<rect class="vb" style="animation-delay:0.90s" x="280.9" y="407.2" width="9.2" height="2.8" fill="#39ff7a" opacity="0.55"/>
<rect class="vb" style="animation-delay:0.96s" x="295.7" y="409.0" width="9.2" height="1.0" fill="#ff5c57" opacity="0.55"/>
<rect class="vb" style="animation-delay:1.02s" x="310.5" y="409.0" width="9.2" height="1.0" fill="#39ff7a" opacity="0.55"/>
<rect class="vb" style="animation-delay:1.08s" x="325.4" y="409.0" width="9.2" height="1.0" fill="#39ff7a" opacity="0.55"/>
<rect class="vb" style="animation-delay:1.14s" x="340.2" y="409.0" width="9.2" height="1.0" fill="#39ff7a" opacity="0.55"/>
<rect class="vb" style="animation-delay:1.20s" x="355.0" y="409.0" width="9.2" height="1.0" fill="#39ff7a" opacity="0.55"/>
<rect class="vb" style="animation-delay:1.26s" x="369.8" y="409.0" width="9.2" height="1.0" fill="#39ff7a" opacity="0.55"/>
<rect class="vb" style="animation-delay:1.32s" x="384.6" y="409.0" width="9.2" height="1.0" fill="#39ff7a" opacity="0.55"/>
<rect class="vb" style="animation-delay:1.38s" x="399.4" y="409.0" width="9.2" height="1.0" fill="#39ff7a" opacity="0.55"/>
<rect class="vb" style="animation-delay:1.44s" x="414.2" y="409.0" width="9.2" height="1.0" fill="#39ff7a" opacity="0.55"/>
<rect class="vb" style="animation-delay:1.50s" x="429.0" y="409.0" width="9.2" height="1.0" fill="#39ff7a" opacity="0.55"/>
<rect class="vb" style="animation-delay:1.56s" x="443.8" y="409.0" width="9.2" height="1.0" fill="#39ff7a" opacity="0.55"/>
<rect class="vb" style="animation-delay:1.62s" x="458.6" y="409.0" width="9.2" height="1.0" fill="#39ff7a" opacity="0.55"/>
<rect class="vb" style="animation-delay:1.68s" x="473.4" y="409.0" width="9.2" height="1.0" fill="#39ff7a" opacity="0.55"/>
<rect class="vb" style="animation-delay:1.74s" x="488.2" y="409.0" width="9.2" height="1.0" fill="#39ff7a" opacity="0.55"/>
<rect class="vb" style="animation-delay:1.80s" x="503.0" y="409.0" width="9.2" height="1.0" fill="#39ff7a" opacity="0.55"/>
<rect class="vb" style="animation-delay:1.86s" x="517.9" y="409.0" width="9.2" height="1.0" fill="#39ff7a" opacity="0.55"/>
<rect class="vb" style="animation-delay:1.92s" x="532.7" y="409.0" width="9.2" height="1.0" fill="#39ff7a" opacity="0.55"/>
<rect class="vb" style="animation-delay:1.98s" x="547.5" y="409.0" width="9.2" height="1.0" fill="#39ff7a" opacity="0.55"/>
<rect class="vb" style="animation-delay:2.04s" x="562.3" y="409.0" width="9.2" height="1.0" fill="#39ff7a" opacity="0.55"/>
<rect class="vb" style="animation-delay:2.10s" x="577.1" y="401.7" width="9.2" height="8.3" fill="#39ff7a" opacity="0.55"/>
<rect class="vb" style="animation-delay:2.16s" x="591.9" y="409.0" width="9.2" height="1.0" fill="#ff5c57" opacity="0.55"/>
<rect class="vb" style="animation-delay:2.22s" x="606.7" y="374.1" width="9.2" height="35.9" fill="#39ff7a" opacity="0.55"/>
<rect class="vb" style="animation-delay:2.28s" x="621.5" y="407.2" width="9.2" height="2.8" fill="#ff5c57" opacity="0.55"/>
<rect class="vb" style="animation-delay:2.34s" x="636.3" y="393.4" width="9.2" height="16.6" fill="#39ff7a" opacity="0.55"/>
<rect class="vb" style="animation-delay:2.40s" x="651.1" y="376.9" width="9.2" height="33.1" fill="#39ff7a" opacity="0.55"/>
<rect class="vb" style="animation-delay:2.46s" x="665.9" y="387.9" width="9.2" height="22.1" fill="#ff5c57" opacity="0.55"/>
<rect class="vb" style="animation-delay:2.52s" x="680.7" y="390.7" width="9.2" height="19.3" fill="#ff5c57" opacity="0.55"/>
<rect class="vb" style="animation-delay:2.58s" x="695.5" y="401.7" width="9.2" height="8.3" fill="#ff5c57" opacity="0.55"/>
<rect class="vb" style="animation-delay:2.64s" x="710.4" y="401.7" width="9.2" height="8.3" fill="#39ff7a" opacity="0.55"/>
<rect class="vb" style="animation-delay:2.70s" x="725.2" y="399.0" width="9.2" height="11.0" fill="#39ff7a" opacity="0.55"/>
<rect class="vb" style="animation-delay:2.76s" x="740.0" y="393.4" width="9.2" height="16.6" fill="#39ff7a" opacity="0.55"/>
<rect class="vb" style="animation-delay:2.82s" x="754.8" y="365.8" width="9.2" height="44.2" fill="#39ff7a" opacity="0.55"/>
<rect class="vb" style="animation-delay:2.88s" x="769.6" y="352.0" width="9.2" height="58.0" fill="#39ff7a" opacity="0.55"/>
<rect class="vb" style="animation-delay:2.94s" x="784.4" y="390.7" width="9.2" height="19.3" fill="#ff5c57" opacity="0.55"/>
<rect class="vb" style="animation-delay:3.00s" x="799.2" y="352.0" width="9.2" height="58.0" fill="#39ff7a" opacity="0.55"/>
<rect class="vb" style="animation-delay:3.06s" x="814.0" y="376.9" width="9.2" height="33.1" fill="#ff5c57" opacity="0.55"/>
<line x1="16" y1="424" x2="844" y2="424" stroke="#1b232d"/>
<g class="fd">
<text x="20" y="442" class="t"><tspan class="dim">VOL 52W</tspan> <tspan class="c">144</tspan></text>
<text x="200" y="442" class="t"><tspan class="dim">ATH WEEK</tspan> <tspan class="y">21 @ 2026-05-17</tspan></text>
<text x="510" y="442" class="t"><tspan class="dim">GREEN WEEKS</tspan> <tspan class="g">44/52</tspan></text>
<text x="840" y="442" text-anchor="end" class="t"><tspan class="dim">funding paid in</tspan> <tspan class="g">commits</tspan> <tspan class="bl g">█</tspan></text>
</g>
</svg>