<svg xmlns="http://www.w3.org/2000/svg" width="420" height="470" viewBox="0 0 420 470" font-family="'JetBrains Mono',Consolas,monospace">
<defs>
<clipPath id="dish"><circle cx="210" cy="252" r="168"/></clipPath>
</defs>
<style>
@keyframes spin{to{transform:rotate(360deg)}}
.sweep{transform-origin:210px 252px;animation:spin 6.0s linear infinite}
@keyframes ping{0%{transform:scale(1);opacity:.95}14%{transform:scale(4);opacity:0}15%,100%{transform:scale(1);opacity:0}}
.ping{transform-box:fill-box;transform-origin:center;animation:ping 6.0s linear infinite}
@keyframes glow{0%,3%{opacity:1}14%{opacity:.45}100%{opacity:.45}}
.bl{animation:glow 6.0s linear infinite}
.lbl{font-size:10.5px}
@media (prefers-reduced-motion: reduce){ .sweep,.ping{animation:none} .ping{opacity:0} .bl{animation:none;opacity:.8} }
</style>
<rect width="420" height="470" rx="10" fill="#0a0e12"/>
<rect width="420" height="34" rx="10" fill="#11161c"/><rect y="20" width="420" height="14" fill="#11161c"/>
<circle cx="22" cy="17" r="6" fill="#ff5c57"/><circle cx="42" cy="17" r="6" fill="#ffd866"/><circle cx="62" cy="17" r="6" fill="#39ff7a"/>
<text x="210.0" y="22" text-anchor="middle" font-size="12" fill="#52677d">./skillscan --sweep --range max</text>
<circle cx="210" cy="252" r="42" fill="none" stroke="#1b232d" stroke-width="1"/>
<circle cx="210" cy="252" r="84" fill="none" stroke="#1b232d" stroke-width="1"/>
<circle cx="210" cy="252" r="126" fill="none" stroke="#1b232d" stroke-width="1"/>
<circle cx="210" cy="252" r="168" fill="none" stroke="#1b232d" stroke-width="1"/>
<line x1="42" y1="252" x2="378" y2="252" stroke="#1b232d"/>
<line x1="210" y1="84" x2="210" y2="420" stroke="#1b232d"/>
<line x1="371.3" y1="252.0" x2="378.0" y2="252.0" stroke="#52677d" stroke-width="1"/>
<line x1="349.7" y1="332.6" x2="355.5" y2="336.0" stroke="#52677d" stroke-width="1"/>
<line x1="290.6" y1="391.7" x2="294.0" y2="397.5" stroke="#52677d" stroke-width="1"/>
<line x1="210.0" y1="413.3" x2="210.0" y2="420.0" stroke="#52677d" stroke-width="1"/>
<line x1="129.4" y1="391.7" x2="126.0" y2="397.5" stroke="#52677d" stroke-width="1"/>
<line x1="70.3" y1="332.6" x2="64.5" y2="336.0" stroke="#52677d" stroke-width="1"/>
<line x1="48.7" y1="252.0" x2="42.0" y2="252.0" stroke="#52677d" stroke-width="1"/>
<line x1="70.3" y1="171.4" x2="64.5" y2="168.0" stroke="#52677d" stroke-width="1"/>
<line x1="129.4" y1="112.3" x2="126.0" y2="106.5" stroke="#52677d" stroke-width="1"/>
<line x1="210.0" y1="90.7" x2="210.0" y2="84.0" stroke="#52677d" stroke-width="1"/>
<line x1="290.6" y1="112.3" x2="294.0" y2="106.5" stroke="#52677d" stroke-width="1"/>
<line x1="349.7" y1="171.4" x2="355.5" y2="168.0" stroke="#52677d" stroke-width="1"/>
<g clip-path="url(#dish)">
<g class="sweep">
<path d="M210,252 L378,252 A168,168 0 0,0 338.7,144.0 Z" fill="#39ff7a" opacity="0.13"/>
<line x1="210" y1="252" x2="378" y2="252" stroke="#39ff7a" stroke-width="1.8"/>
</g></g>
<circle class="ping" cx="238.9" cy="210.7" r="4" fill="none" stroke="#39ff7a" stroke-width="1.4" style="animation-delay:5.083s"/>
<circle class="bl" cx="238.9" cy="210.7" r="3" fill="#39ff7a" style="animation-delay:5.083s;opacity:.45"/>
<text class="lbl" x="246.9" y="204.7" text-anchor="start" fill="#9fb3c8">Python</text>
<circle class="ping" cx="289.2" cy="288.9" r="4" fill="none" stroke="#39ff7a" stroke-width="1.4" style="animation-delay:0.417s"/>
<circle class="bl" cx="289.2" cy="288.9" r="3" fill="#39ff7a" style="animation-delay:0.417s;opacity:.45"/>
<text class="lbl" x="297.2" y="282.9" text-anchor="start" fill="#9fb3c8">FastAPI</text>
<circle class="ping" cx="229.8" cy="364.5" r="4" fill="none" stroke="#39ff7a" stroke-width="1.4" style="animation-delay:1.333s"/>
<circle class="bl" cx="229.8" cy="364.5" r="3" fill="#39ff7a" style="animation-delay:1.333s;opacity:.45"/>
<text class="lbl" x="237.8" y="384.5" text-anchor="start" fill="#9fb3c8">PostgreSQL</text>
<circle class="ping" cx="145.7" cy="306.0" r="4" fill="none" stroke="#39ff7a" stroke-width="1.4" style="animation-delay:2.333s"/>
<circle class="bl" cx="145.7" cy="306.0" r="3" fill="#39ff7a" style="animation-delay:2.333s;opacity:.45"/>
<text class="lbl" x="137.7" y="300.0" text-anchor="end" fill="#9fb3c8">Docker</text>
<circle class="ping" cx="89.5" cy="241.5" r="4" fill="none" stroke="#39ff7a" stroke-width="1.4" style="animation-delay:3.083s"/>
<circle class="bl" cx="89.5" cy="241.5" r="3" fill="#39ff7a" style="animation-delay:3.083s;opacity:.45"/>
<text class="lbl" x="81.5" y="235.5" text-anchor="end" fill="#9fb3c8">Vue 3</text>
<circle class="ping" cx="167.4" cy="160.6" r="4" fill="none" stroke="#39ff7a" stroke-width="1.4" style="animation-delay:4.083s"/>
<circle class="bl" cx="167.4" cy="160.6" r="3" fill="#39ff7a" style="animation-delay:4.083s;opacity:.45"/>
<text class="lbl" x="159.4" y="154.6" text-anchor="end" fill="#9fb3c8">Linux</text>
<circle class="ping" cx="342.6" cy="203.7" r="4" fill="none" stroke="#39ff7a" stroke-width="1.4" style="animation-delay:5.667s"/>
<circle class="bl" cx="342.6" cy="203.7" r="3" fill="#39ff7a" style="animation-delay:5.667s;opacity:.45"/>
<text class="lbl" x="350.6" y="223.7" text-anchor="start" fill="#9fb3c8">Quant/Stats</text>
<circle class="ping" cx="146.1" cy="389.0" r="4" fill="none" stroke="#39ff7a" stroke-width="1.4" style="animation-delay:1.917s"/>
<circle class="bl" cx="146.1" cy="389.0" r="3" fill="#39ff7a" style="animation-delay:1.917s;opacity:.45"/>
<text class="lbl" x="138.1" y="383.0" text-anchor="end" fill="#9fb3c8">Java</text>
<circle class="ping" cx="118.0" cy="175.0" r="4" fill="none" stroke="#ffd866" stroke-width="1.4" style="animation-delay:4.667s"/>
<circle class="bl" cx="118.0" cy="175.0" r="3" fill="#ffd866" style="animation-delay:4.667s;opacity:.45"/>
<text class="lbl" x="110.0" y="169.0" text-anchor="end" fill="#ffd866">AWS</text>
<circle cx="210" cy="252" r="2.5" fill="#39ff7a"/>
<text x="210.0" y="454" text-anchor="middle" font-size="10" fill="#52677d">9 contacts · 8 locked · 1 acquiring (AWS)</text>
</svg>