<svg xmlns="http://www.w3.org/2000/svg" width="420" height="470" viewBox="0 0 420 470" font-family="'JetBrains Mono',Consolas,monospace">
<defs>
<linearGradient id="beam" x1="0" y1="0" x2="1" y2="0">
  <stop offset="0" stop-color="#39ff7a" stop-opacity="0.55"/>
  <stop offset="1" stop-color="#39ff7a" stop-opacity="0"/>
</linearGradient>
<clipPath id="dish"><circle cx="210" cy="252" r="168"/></clipPath>
</defs>
<style>
@keyframes ping{0%{r:4;opacity:.9}12%{r:15;opacity:0}13%,100%{r:4;opacity:0}}
@keyframes glow{0%,2%{opacity:1}10%{opacity:.45}100%{opacity:.45}}
.lbl{font-size:10.5px}
@media (prefers-reduced-motion: reduce){ .anim{display:none} circle.bl{opacity:.8!important;animation:none!important} }
</style>
<rect width="420" height="470" rx="10" fill="#0a0e12"/>
<rect width="420" height="34" rx="10" fill="#11161c"/><rect y="20" width="420" height="14" fill="#11161c"/>
<circle cx="22" cy="17" r="6" fill="#ff5c57"/><circle cx="42" cy="17" r="6" fill="#ffd866"/><circle cx="62" cy="17" r="6" fill="#39ff7a"/>
<text x="210.0" y="22" text-anchor="middle" font-size="12" fill="#52677d">./skillscan --sweep --range max</text>
<circle cx="210" cy="252" r="42" fill="none" stroke="#1b232d" stroke-width="1"/>
<circle cx="210" cy="252" r="84" fill="none" stroke="#1b232d" stroke-width="1"/>
<circle cx="210" cy="252" r="126" fill="none" stroke="#1b232d" stroke-width="1"/>
<circle cx="210" cy="252" r="168" fill="none" stroke="#1b232d" stroke-width="1"/>
<line x1="42" y1="252" x2="378" y2="252" stroke="#1b232d"/>
<line x1="210" y1="84" x2="210" y2="420" stroke="#1b232d"/>
<line x1="371.3" y1="252.0" x2="378.0" y2="252.0" stroke="#52677d" stroke-width="1"/>
<line x1="349.7" y1="332.6" x2="355.5" y2="336.0" stroke="#52677d" stroke-width="1"/>
<line x1="290.6" y1="391.7" x2="294.0" y2="397.5" stroke="#52677d" stroke-width="1"/>
<line x1="210.0" y1="413.3" x2="210.0" y2="420.0" stroke="#52677d" stroke-width="1"/>
<line x1="129.4" y1="391.7" x2="126.0" y2="397.5" stroke="#52677d" stroke-width="1"/>
<line x1="70.3" y1="332.6" x2="64.5" y2="336.0" stroke="#52677d" stroke-width="1"/>
<line x1="48.7" y1="252.0" x2="42.0" y2="252.0" stroke="#52677d" stroke-width="1"/>
<line x1="70.3" y1="171.4" x2="64.5" y2="168.0" stroke="#52677d" stroke-width="1"/>
<line x1="129.4" y1="112.3" x2="126.0" y2="106.5" stroke="#52677d" stroke-width="1"/>
<line x1="210.0" y1="90.7" x2="210.0" y2="84.0" stroke="#52677d" stroke-width="1"/>
<line x1="290.6" y1="112.3" x2="294.0" y2="106.5" stroke="#52677d" stroke-width="1"/>
<line x1="349.7" y1="171.4" x2="355.5" y2="168.0" stroke="#52677d" stroke-width="1"/>
<g clip-path="url(#dish)" class="anim">
<g><animateTransform attributeName="transform" type="rotate" from="0 210 252" to="360 210 252" dur="6.0s" repeatCount="indefinite"/>
<path d="M210,252 L378,252 A168,168 0 0,0 338.7,144.0 Z" fill="url(#beam)" opacity="0.5" transform="rotate(0)"/>
<line x1="210" y1="252" x2="378" y2="252" stroke="#39ff7a" stroke-width="1.6"/>
</g></g>
<circle class="anim" cx="238.9" cy="210.7" r="4" fill="none" stroke="#39ff7a" style="animation:ping 6.0s linear infinite;animation-delay:5.08s"/>
<circle class="bl" cx="238.9" cy="210.7" r="3" fill="#39ff7a" style="animation:glow 6.0s linear infinite;animation-delay:5.08s;opacity:.45"/>
<text class="lbl" x="246.9" y="204.7" text-anchor="start" fill="#9fb3c8">Python</text>
<circle class="anim" cx="289.2" cy="288.9" r="4" fill="none" stroke="#39ff7a" style="animation:ping 6.0s linear infinite;animation-delay:0.42s"/>
<circle class="bl" cx="289.2" cy="288.9" r="3" fill="#39ff7a" style="animation:glow 6.0s linear infinite;animation-delay:0.42s;opacity:.45"/>
<text class="lbl" x="297.2" y="282.9" text-anchor="start" fill="#9fb3c8">FastAPI</text>
<circle class="anim" cx="229.8" cy="364.5" r="4" fill="none" stroke="#39ff7a" style="animation:ping 6.0s linear infinite;animation-delay:1.33s"/>
<circle class="bl" cx="229.8" cy="364.5" r="3" fill="#39ff7a" style="animation:glow 6.0s linear infinite;animation-delay:1.33s;opacity:.45"/>
<text class="lbl" x="237.8" y="384.5" text-anchor="start" fill="#9fb3c8">PostgreSQL</text>
<circle class="anim" cx="145.7" cy="306.0" r="4" fill="none" stroke="#39ff7a" style="animation:ping 6.0s linear infinite;animation-delay:2.33s"/>
<circle class="bl" cx="145.7" cy="306.0" r="3" fill="#39ff7a" style="animation:glow 6.0s linear infinite;animation-delay:2.33s;opacity:.45"/>
<text class="lbl" x="137.7" y="300.0" text-anchor="end" fill="#9fb3c8">Docker</text>
<circle class="anim" cx="89.5" cy="241.5" r="4" fill="none" stroke="#39ff7a" style="animation:ping 6.0s linear infinite;animation-delay:3.08s"/>
<circle class="bl" cx="89.5" cy="241.5" r="3" fill="#39ff7a" style="animation:glow 6.0s linear infinite;animation-delay:3.08s;opacity:.45"/>
<text class="lbl" x="81.5" y="235.5" text-anchor="end" fill="#9fb3c8">Vue 3</text>
<circle class="anim" cx="167.4" cy="160.6" r="4" fill="none" stroke="#39ff7a" style="animation:ping 6.0s linear infinite;animation-delay:4.08s"/>
<circle class="bl" cx="167.4" cy="160.6" r="3" fill="#39ff7a" style="animation:glow 6.0s linear infinite;animation-delay:4.08s;opacity:.45"/>
<text class="lbl" x="159.4" y="154.6" text-anchor="end" fill="#9fb3c8">Linux</text>
<circle class="anim" cx="342.6" cy="203.7" r="4" fill="none" stroke="#39ff7a" style="animation:ping 6.0s linear infinite;animation-delay:5.67s"/>
<circle class="bl" cx="342.6" cy="203.7" r="3" fill="#39ff7a" style="animation:glow 6.0s linear infinite;animation-delay:5.67s;opacity:.45"/>
<text class="lbl" x="350.6" y="223.7" text-anchor="start" fill="#9fb3c8">Quant/Stats</text>
<circle class="anim" cx="146.1" cy="389.0" r="4" fill="none" stroke="#ffd866" style="animation:ping 6.0s linear infinite;animation-delay:1.92s"/>
<circle class="bl" cx="146.1" cy="389.0" r="3" fill="#ffd866" style="animation:glow 6.0s linear infinite;animation-delay:1.92s;opacity:.45"/>
<text class="lbl" x="138.1" y="383.0" text-anchor="end" fill="#ffd866">Java</text>
<circle cx="210" cy="252" r="2.5" fill="#39ff7a"/>
<text x="210.0" y="454" text-anchor="middle" font-size="10" fill="#52677d">8 contacts · 7 locked · 1 acquiring (Java)</text>
</svg>